# Blender v2.91.0 OBJ File: ''
# www.blender.org
mtllib AK-47_magazine.mtl
o Cube.001
v 0.005539 0.089787 0.007424
v 0.008959 0.067599 0.004209
v 0.005539 0.067599 0.004209
v 0.011779 0.087104 0.074341
v 0.011779 0.059363 0.074122
v 0.011779 0.059509 0.072295
v 0.011779 0.087028 0.076312
v 0.009860 0.105678 0.074985
v 0.007282 0.087028 0.076312
v 0.011779 0.005036 0.053140
v 0.011779 -0.044793 0.024386
v 0.011779 -0.043763 0.022942
v 0.005539 0.032047 -0.007542
v 0.011779 0.004572 0.054980
v 0.008959 -0.001316 -0.026916
v 0.005539 -0.027838 -0.052609
v 0.005539 -0.001316 -0.026916
v 0.008959 0.032047 -0.007542
v 0.011779 -0.080013 -0.009700
v 0.011779 -0.078676 -0.010847
v 0.005539 -0.048991 -0.081911
v 0.008959 -0.050012 -0.081218
v 0.005539 -0.050012 -0.081218
v 0.011779 -0.100673 -0.038290
v 0.011779 -0.103435 -0.045111
v 0.011779 -0.099226 -0.039286
v 0.008959 -0.045395 -0.076930
v 0.005539 -0.045395 -0.076930
v 0.011779 0.105619 0.073096
v 0.009860 0.105619 0.073096
v 0.008959 0.089737 0.008666
v 0.008959 0.104635 0.008449
v 0.008959 0.104650 0.009651
v 0.011779 0.089023 0.026383
v 0.011779 0.105336 0.061488
v 0.011779 0.087577 0.062265
v 0.009860 0.104877 0.026786
v 0.008959 0.104812 0.021904
v 0.007499 0.104812 0.021904
v 0.011779 -0.060818 -0.066125
v 0.008959 -0.060431 -0.074153
v 0.008959 -0.056712 -0.069002
v 0.007282 -0.064583 -0.071338
v 0.011779 -0.094090 -0.051329
v 0.007282 -0.094090 -0.051329
v 0.011779 -0.013614 -0.012759
v 0.008959 -0.038552 -0.043852
v 0.008959 -0.010340 -0.016529
v 0.008959 0.065834 0.018526
v 0.011779 0.023985 0.009586
v 0.008959 0.026132 0.005026
v 0.008959 0.089227 0.021335
v 0.011779 0.065193 0.023721
v 0.008959 0.067441 0.005487
v 0.008959 -0.002121 -0.025989
v 0.008959 0.031519 -0.006419
v 0.008959 -0.028794 -0.051827
v 0.008959 -0.046405 -0.076222
v 0.007499 0.104650 0.009651
v 0.011779 0.104877 0.026786
v 0.011779 -0.064583 -0.071338
v 0.000000 0.104635 0.008449
v 0.007499 0.104635 0.008449
v 0.007282 -0.044793 0.024386
v 0.007282 0.002405 0.058099
v 0.007282 -0.046959 0.027505
v 0.007282 0.004572 0.054980
v 0.007282 0.058237 0.078878
v 0.007282 0.059363 0.074122
v 0.007282 0.085373 0.081990
v 0.000000 0.087028 0.076312
v 0.007282 -0.104905 -0.044145
v 0.000000 -0.107071 -0.041027
v 0.000000 -0.104905 -0.044145
v 0.007282 -0.097771 -0.048833
v 0.007282 -0.103435 -0.045111
v 0.011779 0.087396 0.066741
v 0.009860 0.105393 0.065818
v 0.009860 0.105336 0.061488
v 0.011779 -0.093649 -0.043127
v 0.011779 -0.090007 -0.045678
v 0.011779 -0.073521 -0.015270
v 0.011095 -0.039793 0.017376
v 0.011779 -0.039793 0.017376
v 0.011095 -0.093649 -0.043127
v 0.011095 -0.073521 -0.015270
v 0.011779 0.060073 0.065254
v 0.011095 0.087396 0.066741
v 0.011095 0.060641 0.060647
v 0.011779 0.060641 0.060647
v 0.011779 0.008729 0.042001
v 0.011779 -0.036890 0.014033
v 0.011779 -0.042440 -0.040674
v 0.011779 -0.097771 -0.048833
v 0.011779 0.105393 0.065818
v 0.007282 -0.082180 -0.006581
v 0.007282 -0.080013 -0.009700
v 0.008959 -0.027838 -0.052609
v 0.011095 -0.070074 -0.018088
v 0.011095 -0.036890 0.014033
v 0.011095 0.006825 0.046044
v 0.011095 0.008729 0.042001
v 0.011095 0.060073 0.065254
v 0.011095 -0.090007 -0.045678
v 0.011095 0.087577 0.062265
v 0.011779 -0.070074 -0.018088
v 0.011779 0.006825 0.046044
v 0.000000 -0.045395 -0.076930
v 0.000000 -0.027838 -0.052609
v 0.000000 -0.094090 -0.051329
v 0.000000 -0.097771 -0.048833
v 0.009860 0.062963 0.072541
v 0.007499 0.066422 0.018646
v 0.000000 -0.103435 -0.045111
v 0.007282 -0.100673 -0.038290
v 0.011779 -0.104905 -0.044145
v 0.008959 0.089787 0.007424
v 0.000000 -0.064583 -0.071338
v 0.005539 -0.060431 -0.074153
v 0.000000 0.104650 0.009651
v 0.007499 0.067281 0.005749
v 0.009860 0.066080 0.023785
v 0.000000 0.105678 0.074985
v 0.000000 0.105619 0.073096
v 0.000000 -0.048991 -0.081911
v 0.000000 -0.050012 -0.081218
v 0.000000 -0.001316 -0.026916
v 0.000000 0.032047 -0.007542
v 0.000000 0.067599 0.004209
v 0.000000 0.089787 0.007424
v 0.000000 -0.046959 0.027505
v 0.000000 -0.102840 -0.035171
v 0.007282 -0.107071 -0.041027
v 0.007282 -0.102840 -0.035171
v 0.000000 0.002405 0.058099
v 0.000000 0.058237 0.078878
v 0.000000 -0.082180 -0.006581
v 0.000000 -0.060431 -0.074153
v 0.008959 -0.048991 -0.081911
v 0.009860 0.063648 0.060311
v 0.009860 0.063344 0.064868
v 0.011779 0.105678 0.074985
v 0.000000 0.062963 0.072541
v -0.008959 0.067599 0.004209
v -0.005539 0.089787 0.007424
v -0.005539 0.067599 0.004209
v -0.011779 0.059363 0.074122
v -0.011779 0.087104 0.074341
v -0.011779 0.059509 0.072295
v -0.009860 0.105678 0.074985
v -0.011779 0.087028 0.076312
v -0.007282 0.087028 0.076312
v -0.011779 0.005036 0.053140
v -0.011779 -0.044793 0.024386
v -0.011779 0.004572 0.054980
v -0.005539 0.032047 -0.007542
v -0.005539 -0.027838 -0.052609
v -0.008959 -0.001316 -0.026916
v -0.005539 -0.001316 -0.026916
v -0.008959 0.032047 -0.007542
v -0.011779 -0.043763 0.022942
v -0.011779 -0.080013 -0.009700
v -0.008959 -0.050012 -0.081218
v -0.005539 -0.048991 -0.081911
v -0.005539 -0.050012 -0.081218
v -0.011779 -0.103435 -0.045111
v -0.011779 -0.100673 -0.038290
v -0.011779 -0.099226 -0.039286
v -0.008959 -0.045395 -0.076930
v -0.005539 -0.045395 -0.076930
v -0.011779 0.105619 0.073096
v -0.009860 0.105619 0.073096
v -0.008959 0.089737 0.008666
v -0.008959 0.104635 0.008449
v -0.008959 0.089787 0.007424
v -0.011779 0.105336 0.061488
v -0.011779 0.089023 0.026383
v -0.011779 0.087577 0.062265
v -0.008959 0.104812 0.021904
v -0.009860 0.104877 0.026786
v -0.007499 0.104812 0.021904
v -0.008959 -0.060431 -0.074153
v -0.011779 -0.060818 -0.066125
v -0.008959 -0.056712 -0.069002
v -0.011779 -0.094090 -0.051329
v -0.007282 -0.064583 -0.071338
v -0.007282 -0.094090 -0.051329
v -0.008959 -0.038552 -0.043852
v -0.011779 -0.013614 -0.012759
v -0.008959 -0.010340 -0.016529
v -0.008959 0.065834 0.018526
v -0.011779 0.023985 0.009586
v -0.011779 0.065193 0.023721
v -0.008959 0.026132 0.005026
v -0.008959 0.089227 0.021335
v -0.008959 0.067441 0.005487
v -0.008959 -0.002121 -0.025989
v -0.008959 0.031519 -0.006419
v -0.008959 -0.028794 -0.051827
v -0.008959 -0.046405 -0.076222
v -0.008959 0.104650 0.009651
v -0.007499 0.104650 0.009651
v -0.005539 -0.060431 -0.074153
v -0.007282 -0.044793 0.024386
v -0.007282 0.002405 0.058099
v -0.007282 0.004572 0.054980
v -0.007282 0.058237 0.078878
v -0.007282 0.059363 0.074122
v -0.007282 0.085373 0.081990
v -0.007282 -0.104905 -0.044145
v -0.007282 -0.097771 -0.048833
v -0.007282 -0.103435 -0.045111
v -0.011779 0.087396 0.066741
v -0.009860 0.105393 0.065818
v -0.009860 0.105336 0.061488
v -0.011779 -0.093649 -0.043127
v -0.011779 -0.090007 -0.045678
v -0.011095 -0.039793 0.017376
v -0.011779 -0.073521 -0.015270
v -0.011779 -0.039793 0.017376
v -0.011095 -0.073521 -0.015270
v -0.011095 0.087396 0.066741
v -0.011779 0.060073 0.065254
v -0.011095 0.060641 0.060647
v -0.011779 0.060641 0.060647
v -0.011779 0.008729 0.042001
v -0.011779 -0.042440 -0.040674
v -0.011779 -0.036890 0.014033
v -0.011779 -0.064583 -0.071338
v -0.011779 0.104877 0.026786
v -0.011779 -0.097771 -0.048833
v -0.011779 0.105393 0.065818
v -0.011779 -0.070074 -0.018088
v -0.011095 -0.093649 -0.043127
v -0.007282 -0.082180 -0.006581
v -0.007282 -0.080013 -0.009700
v -0.008959 -0.027838 -0.052609
v -0.011779 -0.078676 -0.010847
v -0.011095 -0.070074 -0.018088
v -0.011095 -0.036890 0.014033
v -0.011095 0.006825 0.046044
v -0.011095 0.060073 0.065254
v -0.011095 0.008729 0.042001
v -0.011095 0.087577 0.062265
v -0.011095 -0.090007 -0.045678
v -0.011779 0.006825 0.046044
v -0.009860 0.062963 0.072541
v -0.007499 0.066422 0.018646
v -0.011779 -0.104905 -0.044145
v -0.007282 -0.100673 -0.038290
v -0.007499 0.104635 0.008449
v 0.000000 0.067281 0.005749
v -0.009860 0.066080 0.023785
v -0.007282 -0.046959 0.027505
v -0.007282 -0.107071 -0.041027
v -0.007282 -0.102840 -0.035171
v -0.008959 -0.048991 -0.081911
v -0.009860 0.063648 0.060311
v -0.011779 0.105678 0.074985
v 0.000000 0.085373 0.081990
v -0.009860 0.063344 0.064868
v -0.007499 0.067281 0.005749
v 0.012657 -0.063571 -0.069014
v 0.012657 -0.105087 -0.045516
v 0.012657 -0.065343 -0.072001
v -0.009532 -0.060079 -0.075509
v 0.009532 -0.058308 -0.072522
v 0.009532 -0.060079 -0.075509
v 0.012657 -0.103315 -0.042529
v -0.012658 -0.103315 -0.042529
v -0.012658 -0.105087 -0.045516
v -0.012658 -0.063571 -0.069014
v -0.012658 -0.065343 -0.072001
v -0.009532 -0.058308 -0.072522
v 0.008133 -0.107085 -0.040017
v -0.008133 -0.108857 -0.043004
v 0.008133 -0.108857 -0.043004
v -0.008133 -0.107085 -0.040017
vn 0.0000 0.1434 -0.9897
vn 1.0000 -0.0000 0.0000
vn 0.0000 0.0710 0.9975
vn 0.0000 0.3138 -0.9495
vn 0.0000 0.6958 -0.7182
vn 0.0000 0.5022 -0.8648
vn -0.0000 -0.5612 -0.8277
vn 0.0000 -0.5614 -0.8275
vn 0.0000 0.8108 -0.5853
vn 0.0000 0.9995 -0.0312
vn 0.0000 0.9995 -0.0311
vn 0.0000 0.9999 -0.0133
vn 0.8716 0.3975 -0.2870
vn 0.8716 0.3974 -0.2870
vn 0.8704 0.3425 -0.3536
vn 0.8705 0.3424 -0.3536
vn 0.8726 0.1575 -0.4623
vn 0.8748 0.1568 -0.4584
vn 0.8714 0.1579 -0.4645
vn 0.8685 0.2530 -0.4262
vn 0.8706 0.2506 -0.4234
vn 0.8718 0.2493 -0.4218
vn 0.8804 0.0565 -0.4709
vn 0.0000 0.9999 -0.0129
vn 0.0000 0.9999 -0.0127
vn 0.8658 0.0127 -0.5003
vn 0.0000 0.0689 -0.9976
vn 0.0000 0.9600 0.2798
vn 0.0000 -0.8213 -0.5705
vn 0.0000 -0.5492 -0.8357
vn 0.0000 0.9999 -0.0132
vn 0.0000 0.6955 -0.7185
vn 0.0000 0.8106 -0.5857
vn 0.0000 0.0543 -0.9985
vn 0.0000 -0.0600 0.9982
vn 0.0000 0.5737 0.8191
vn 0.8715 0.3975 -0.2870
vn 0.0000 -0.5227 0.8525
vn -0.0000 -0.9992 -0.0401
vn 0.0000 -0.9992 -0.0404
vn 0.0000 -0.8106 0.5856
vn 0.0000 0.3394 -0.9407
vn 0.0000 -0.3380 0.9411
vn 0.0000 0.5238 -0.8518
vn 0.0000 -0.6955 0.7185
vn 0.0000 -0.8105 0.5857
vn 0.0000 -0.8105 0.5858
vn -1.0000 0.0000 0.0000
vn 0.0000 -0.0789 0.9969
vn 0.0000 -0.3298 0.9440
vn 0.0000 -0.5268 0.8500
vn 0.0000 -0.6954 0.7186
vn 0.0000 -0.1039 0.9946
vn -0.8996 -0.0337 0.4355
vn 0.0000 -0.5616 -0.8274
vn 0.0000 -0.3488 0.9372
vn 0.0000 -0.1139 0.9935
vn 0.0000 0.9999 -0.0131
vn 0.0000 0.9999 -0.0128
vn -0.0000 0.9999 -0.0130
vn 0.0000 0.9995 -0.0310
vn 0.0000 0.0130 -0.9999
vn -0.8716 0.3974 -0.2870
vn -0.8716 0.3975 -0.2870
vn -0.8705 0.3424 -0.3536
vn -0.8704 0.3425 -0.3536
vn -0.8726 0.1575 -0.4623
vn -0.8748 0.1568 -0.4584
vn -0.8760 0.1565 -0.4562
vn -0.8706 0.2506 -0.4234
vn -0.8685 0.2530 -0.4262
vn -0.8718 0.2493 -0.4218
vn -0.8804 0.0565 -0.4709
vn -0.8732 0.0178 -0.4871
vn -0.8715 0.3975 -0.2870
vn 0.8996 -0.0337 0.4355
vn 0.8760 0.1565 -0.4562
vn 0.8673 0.2543 -0.4279
vn 0.8727 0.0542 -0.4853
vn 0.8732 0.0178 -0.4871
vn -0.9090 -0.0352 0.4153
vn -0.8714 0.1579 -0.4645
vn -0.8673 0.2543 -0.4279
vn -0.8727 0.0542 -0.4853
vn -0.8658 0.0127 -0.5003
vn 0.9090 -0.0352 0.4153
vn 0.0000 0.8602 -0.5100
vn 0.0000 0.8600 -0.5103
vn 0.0000 0.5545 0.8322
vn 0.0000 0.5546 0.8321
vn 0.0000 -0.8600 0.5102
vn 0.8963 0.3814 -0.2262
vn 0.8963 0.3814 -0.2261
vn 0.0000 -0.5546 -0.8321
vn 0.0000 -0.5545 -0.8322
vn -0.8962 0.3815 -0.2263
vn -0.8963 0.3815 -0.2262
vn 0.7071 -0.6081 0.3608
vn -0.7070 -0.6082 0.3608
vn -0.7073 -0.6082 0.3604
vn -0.7072 -0.6082 0.3605
vn -0.0000 0.8599 -0.5104
vn 0.0000 -0.8603 0.5098
vn 0.8963 0.3814 -0.2263
usemtl Material.002
s 1
f 1//1 2//1 3//1
f 4//2 5//2 6//2
f 7//3 8//3 9//3
f 10//2 11//2 12//2
f 2//4 13//4 3//4
f 6//2 14//2 10//2
f 15//5 16//5 17//5
f 18//6 17//6 13//6
f 12//2 19//2 20//2
f 21//7 22//8 23//8
f 24//2 25//2 26//2
f 27//9 21//9 28//9
f 8//10 29//11 30//10
f 31//2 32//2 33//2
f 34//2 35//2 36//2
f 37//12 38//12 39//12
f 40//13 41//14 42//13
f 43//7 44//7 45//7
f 46//15 47//16 48//15
f 49//17 50//18 51//19
f 50//20 48//21 51//22
f 52//23 53//23 49//23
f 31//2 49//2 54//2
f 51//2 55//2 56//2
f 54//2 51//2 56//2
f 48//2 57//2 55//2
f 42//2 22//2 58//2
f 39//12 33//24 59//25
f 34//26 38//26 60//26
f 43//7 41//7 61//7
f 1//27 62//27 63//27
f 64//2 65//2 66//2
f 67//2 68//2 65//2
f 69//2 70//2 68//2
f 71//28 70//28 9//28
f 72//29 73//29 74//29
f 75//30 25//30 76//30
f 77//2 29//2 4//2
f 78//31 35//31 79//31
f 80//2 44//2 81//2
f 82//32 83//32 84//32
f 82//33 85//33 86//33
f 87//34 88//34 77//34
f 36//35 89//35 90//35
f 34//2 90//2 53//2
f 91//2 46//2 50//2
f 53//2 91//2 50//2
f 92//2 93//2 46//2
f 81//2 61//2 40//2
f 79//31 60//12 37//12
f 45//7 94//7 75//7
f 36//2 95//2 77//2
f 93//2 81//2 40//2
f 81//36 85//36 80//36
f 64//2 96//2 97//2
f 57//2 42//2 58//2
f 47//37 40//13 42//13
f 98//9 28//9 16//9
f 20//2 24//2 26//2
f 83//2 99//2 100//2
f 89//2 101//2 102//2
f 101//2 100//2 102//2
f 89//2 88//2 103//2
f 99//2 85//2 104//2
f 91//38 100//38 92//38
f 77//39 105//40 36//40
f 106//41 104//41 81//41
f 107//42 103//42 87//42
f 90//43 102//43 91//43
f 84//44 101//44 107//44
f 92//45 99//45 106//45
f 16//9 108//9 109//9
f 97//46 24//47 19//46
f 110//7 75//7 111//7
f 78//48 112//48 30//48
f 59//48 113//48 39//48
f 111//30 76//30 114//30
f 7//49 69//49 5//49
f 69//50 14//50 5//50
f 67//51 11//51 14//51
f 115//47 116//47 24//47
f 64//52 19//52 11//52
f 117//27 63//27 32//27
f 118//7 119//7 43//7
f 120//53 121//53 59//53
f 118//7 45//7 110//7
f 39//54 122//54 37//54
f 123//10 30//10 124//10
f 28//9 125//9 108//9
f 125//55 23//8 126//8
f 13//6 127//6 128//6
f 17//5 109//5 127//5
f 3//4 128//4 129//4
f 9//3 123//3 71//3
f 130//1 3//1 129//1
f 131//52 96//52 66//52
f 132//46 133//41 134//46
f 135//51 66//51 65//51
f 136//56 65//56 68//56
f 70//57 136//57 68//57
f 137//46 134//46 96//46
f 97//2 134//2 115//2
f 115//2 133//2 72//2
f 126//8 119//7 138//7
f 62//58 59//25 63//59
f 98//2 58//2 27//2
f 59//25 32//60 63//59
f 58//2 139//2 27//2
f 55//2 98//2 15//2
f 2//2 56//2 18//2
f 56//2 15//2 18//2
f 117//2 54//2 2//2
f 52//2 33//2 38//2
f 23//8 41//7 119//7
f 78//48 140//48 141//48
f 114//30 72//30 74//30
f 82//2 26//2 80//2
f 4//2 142//2 7//2
f 76//30 116//30 72//30
f 30//10 95//61 78//61
f 26//2 94//2 80//2
f 84//2 20//2 82//2
f 87//2 10//2 107//2
f 107//2 12//2 84//2
f 77//2 6//2 87//2
f 37//48 140//48 79//48
f 30//62 143//62 124//62
f 144//1 145//1 146//1
f 147//48 148//48 149//48
f 150//3 151//3 152//3
f 153//48 154//48 155//48
f 156//4 144//4 146//4
f 149//48 155//48 147//48
f 157//5 158//5 159//5
f 159//6 160//6 156//6
f 161//48 162//48 154//48
f 163//8 164//7 165//8
f 166//48 167//48 168//48
f 164//9 169//9 170//9
f 171//11 150//10 172//10
f 173//48 174//48 175//48
f 176//48 177//48 178//48
f 179//12 180//12 181//12
f 182//63 183//64 184//64
f 185//7 186//7 187//7
f 188//65 189//66 190//66
f 191//67 192//68 193//69
f 190//70 192//71 194//72
f 193//73 195//73 191//73
f 191//48 173//48 196//48
f 197//48 194//48 198//48
f 196//48 194//48 191//48
f 199//48 190//48 197//48
f 163//48 184//48 200//48
f 201//24 181//12 202//25
f 177//74 179//74 195//74
f 186//7 182//7 203//7
f 145//27 62//27 130//27
f 204//48 205//48 206//48
f 206//48 207//48 208//48
f 208//48 209//48 152//48
f 209//28 71//28 152//28
f 73//29 210//29 74//29
f 166//30 211//30 212//30
f 171//48 213//48 148//48
f 176//31 214//31 215//31
f 185//48 216//48 217//48
f 218//32 219//32 220//32
f 221//33 216//33 219//33
f 222//34 223//34 213//34
f 224//35 178//35 225//35
f 225//48 177//48 193//48
f 189//48 226//48 192//48
f 193//48 226//48 225//48
f 227//48 228//48 189//48
f 229//48 217//48 183//48
f 230//12 215//31 180//12
f 231//7 187//7 211//7
f 232//48 178//48 213//48
f 227//48 217//48 233//48
f 234//36 217//36 216//36
f 235//48 204//48 236//48
f 199//48 184//48 188//48
f 188//75 183//64 227//75
f 170//9 237//9 157//9
f 238//48 167//48 162//48
f 239//48 218//48 240//48
f 224//48 241//48 242//48
f 240//48 241//48 243//48
f 224//48 222//48 244//48
f 239//48 234//48 221//48
f 240//38 226//38 228//38
f 244//40 213//39 178//40
f 245//41 233//41 217//41
f 242//42 246//42 223//42
f 243//43 225//43 226//43
f 241//44 220//44 246//44
f 239//45 228//45 233//45
f 108//9 157//9 109//9
f 167//47 236//46 162//46
f 211//7 110//7 111//7
f 247//2 214//2 172//2
f 248//2 202//2 181//2
f 212//30 111//30 114//30
f 208//49 151//49 147//49
f 155//50 208//50 147//50
f 154//51 206//51 155//51
f 249//47 250//47 167//47
f 162//52 204//52 154//52
f 175//27 251//27 145//27
f 118//7 203//7 138//7
f 202//53 252//53 120//53
f 187//7 118//7 110//7
f 253//76 181//76 180//76
f 172//10 123//10 124//10
f 125//9 170//9 108//9
f 165//8 125//55 126//8
f 127//6 156//6 128//6
f 109//5 159//5 127//5
f 128//4 146//4 129//4
f 123//3 152//3 71//3
f 146//1 130//1 129//1
f 235//52 131//52 254//52
f 255//41 132//46 256//46
f 254//51 135//51 205//51
f 205//56 136//56 207//56
f 136//57 209//57 207//57
f 256//46 137//46 235//46
f 256//48 236//48 250//48
f 255//48 250//48 210//48
f 203//7 126//8 138//7
f 62//58 202//25 120//58
f 237//48 200//48 199//48
f 174//60 202//25 251//59
f 257//48 200//48 169//48
f 237//48 197//48 158//48
f 144//48 198//48 196//48
f 158//48 198//48 160//48
f 196//48 175//48 144//48
f 195//48 201//48 173//48
f 182//7 165//8 203//7
f 214//2 258//2 215//2
f 210//30 114//30 74//30
f 219//48 168//48 238//48
f 259//48 148//48 151//48
f 249//30 212//30 210//30
f 232//61 172//10 214//61
f 231//48 168//48 216//48
f 220//48 238//48 161//48
f 223//48 153//48 149//48
f 246//48 161//48 153//48
f 149//48 213//48 223//48
f 258//2 180//2 215//2
f 143//62 172//62 124//62
f 1//1 117//1 2//1
f 4//2 7//2 5//2
f 7//3 142//3 8//3
f 10//2 14//2 11//2
f 2//4 18//4 13//4
f 6//2 5//2 14//2
f 15//5 98//5 16//5
f 18//6 15//6 17//6
f 12//2 11//2 19//2
f 21//7 139//55 22//8
f 24//2 116//2 25//2
f 27//9 139//9 21//9
f 8//10 142//10 29//11
f 31//2 117//2 32//2
f 34//2 60//2 35//2
f 37//12 60//12 38//12
f 40//13 61//14 41//14
f 43//7 61//7 44//7
f 46//15 93//16 47//16
f 49//17 53//77 50//18
f 50//20 46//78 48//21
f 52//79 34//79 53//79
f 31//2 52//2 49//2
f 51//2 48//2 55//2
f 54//2 49//2 51//2
f 48//2 47//2 57//2
f 42//2 41//2 22//2
f 39//12 38//12 33//24
f 34//80 52//80 38//80
f 43//7 119//7 41//7
f 1//27 130//27 62//27
f 64//2 67//2 65//2
f 67//2 69//2 68//2
f 69//2 9//2 70//2
f 71//28 260//28 70//28
f 72//29 133//29 73//29
f 75//30 94//30 25//30
f 77//2 95//2 29//2
f 78//31 95//31 35//31
f 80//2 94//2 44//2
f 82//32 86//32 83//32
f 82//33 80//33 85//33
f 87//34 103//34 88//34
f 36//35 105//35 89//35
f 34//2 36//2 90//2
f 91//2 92//2 46//2
f 53//2 90//2 91//2
f 92//2 106//2 93//2
f 81//2 44//2 61//2
f 79//31 35//31 60//12
f 45//7 44//7 94//7
f 36//2 35//2 95//2
f 93//2 106//2 81//2
f 81//36 104//36 85//36
f 64//2 66//2 96//2
f 57//2 47//2 42//2
f 47//37 93//37 40//13
f 98//9 27//9 28//9
f 20//2 19//2 24//2
f 83//2 86//2 99//2
f 89//2 103//2 101//2
f 101//2 83//2 100//2
f 89//2 105//2 88//2
f 99//2 86//2 85//2
f 91//38 102//38 100//38
f 77//39 88//40 105//40
f 106//41 99//41 104//41
f 107//42 101//42 103//42
f 90//43 89//43 102//43
f 84//44 83//44 101//44
f 92//45 100//45 99//45
f 16//9 28//9 108//9
f 97//46 115//47 24//47
f 110//7 45//7 75//7
f 78//48 141//48 112//48
f 59//48 121//48 113//48
f 111//30 75//30 76//30
f 7//49 9//49 69//49
f 69//50 67//50 14//50
f 67//51 64//51 11//51
f 115//47 72//47 116//47
f 64//52 97//52 19//52
f 117//27 1//27 63//27
f 118//7 138//7 119//7
f 120//53 252//53 121//53
f 118//7 43//7 45//7
f 39//81 113//81 122//81
f 123//10 8//10 30//10
f 28//9 21//9 125//9
f 125//55 21//7 23//8
f 13//6 17//6 127//6
f 17//5 16//5 109//5
f 3//4 13//4 128//4
f 9//3 8//3 123//3
f 130//1 1//1 3//1
f 131//52 137//52 96//52
f 132//46 73//41 133//41
f 135//51 131//51 66//51
f 136//56 135//56 65//56
f 70//57 260//57 136//57
f 137//46 132//46 134//46
f 97//2 96//2 134//2
f 115//2 134//2 133//2
f 126//8 23//8 119//7
f 62//58 120//58 59//25
f 98//2 57//2 58//2
f 59//25 33//24 32//60
f 58//2 22//2 139//2
f 55//2 57//2 98//2
f 2//2 54//2 56//2
f 56//2 55//2 15//2
f 117//2 31//2 54//2
f 52//2 31//2 33//2
f 23//8 22//8 41//7
f 78//48 79//48 140//48
f 114//30 76//30 72//30
f 82//2 20//2 26//2
f 4//2 29//2 142//2
f 76//30 25//30 116//30
f 30//10 29//11 95//61
f 26//2 25//2 94//2
f 84//2 12//2 20//2
f 87//2 6//2 10//2
f 107//2 10//2 12//2
f 77//2 4//2 6//2
f 37//48 122//48 140//48
f 30//62 112//62 143//62
f 144//1 175//1 145//1
f 147//48 151//48 148//48
f 150//3 259//3 151//3
f 153//48 161//48 154//48
f 156//4 160//4 144//4
f 149//48 153//48 155//48
f 157//5 237//5 158//5
f 159//6 158//6 160//6
f 161//48 238//48 162//48
f 163//8 257//55 164//7
f 166//48 249//48 167//48
f 164//9 257//9 169//9
f 171//11 259//10 150//10
f 173//48 201//48 174//48
f 176//48 230//48 177//48
f 179//12 230//12 180//12
f 182//63 229//63 183//64
f 185//7 229//7 186//7
f 188//65 227//65 189//66
f 191//67 194//82 192//68
f 190//70 189//83 192//71
f 193//84 177//84 195//84
f 191//48 195//48 173//48
f 197//48 190//48 194//48
f 196//48 198//48 194//48
f 199//48 188//48 190//48
f 163//48 182//48 184//48
f 201//24 179//12 181//12
f 177//85 230//85 179//85
f 186//7 229//7 182//7
f 145//27 251//27 62//27
f 204//48 254//48 205//48
f 206//48 205//48 207//48
f 208//48 207//48 209//48
f 209//28 260//28 71//28
f 73//29 255//29 210//29
f 166//30 231//30 211//30
f 171//48 232//48 213//48
f 176//31 232//31 214//31
f 185//48 231//48 216//48
f 218//32 221//32 219//32
f 221//33 234//33 216//33
f 222//34 242//34 223//34
f 224//35 244//35 178//35
f 225//48 178//48 177//48
f 189//48 228//48 226//48
f 193//48 192//48 226//48
f 227//48 233//48 228//48
f 229//48 185//48 217//48
f 230//12 176//31 215//31
f 231//7 185//7 187//7
f 232//48 176//48 178//48
f 227//48 183//48 217//48
f 234//36 245//36 217//36
f 235//48 254//48 204//48
f 199//48 200//48 184//48
f 188//75 184//64 183//64
f 170//9 169//9 237//9
f 238//48 168//48 167//48
f 239//48 221//48 218//48
f 224//48 243//48 241//48
f 240//48 218//48 241//48
f 224//48 242//48 222//48
f 239//48 245//48 234//48
f 240//38 243//38 226//38
f 244//40 222//40 213//39
f 245//41 239//41 233//41
f 242//42 241//42 246//42
f 243//43 224//43 225//43
f 241//44 218//44 220//44
f 239//45 240//45 228//45
f 108//9 170//9 157//9
f 167//47 250//47 236//46
f 211//7 187//7 110//7
f 247//2 261//2 214//2
f 248//2 262//2 202//2
f 212//30 211//30 111//30
f 208//49 152//49 151//49
f 155//50 206//50 208//50
f 154//51 204//51 206//51
f 249//47 210//47 250//47
f 162//52 236//52 204//52
f 175//27 174//27 251//27
f 118//7 186//7 203//7
f 202//53 262//53 252//53
f 187//7 186//7 118//7
f 253//86 248//86 181//86
f 172//10 150//10 123//10
f 125//9 164//9 170//9
f 165//8 164//7 125//55
f 127//6 159//6 156//6
f 109//5 157//5 159//5
f 128//4 156//4 146//4
f 123//3 150//3 152//3
f 146//1 145//1 130//1
f 235//52 137//52 131//52
f 255//41 73//41 132//46
f 254//51 131//51 135//51
f 205//56 135//56 136//56
f 136//57 260//57 209//57
f 256//46 132//46 137//46
f 256//48 235//48 236//48
f 255//48 256//48 250//48
f 203//7 165//8 126//8
f 62//58 251//59 202//25
f 237//48 169//48 200//48
f 174//60 201//24 202//25
f 257//48 163//48 200//48
f 237//48 199//48 197//48
f 144//48 160//48 198//48
f 158//48 197//48 198//48
f 196//48 173//48 175//48
f 195//48 179//48 201//48
f 182//7 163//8 165//8
f 214//2 261//2 258//2
f 210//30 212//30 114//30
f 219//48 216//48 168//48
f 259//48 171//48 148//48
f 249//30 166//30 212//30
f 232//61 171//11 172//10
f 231//48 166//48 168//48
f 220//48 219//48 238//48
f 223//48 246//48 153//48
f 246//48 220//48 161//48
f 149//48 148//48 213//48
f 258//2 253//2 180//2
f 143//62 247//62 172//62
usemtl Material.001
f 263//2 264//2 265//2
f 266//87 267//88 268//87
f 269//89 263//90 270//89
f 271//48 272//48 273//48
f 274//90 263//90 267//90
f 275//91 276//91 277//91
f 267//92 265//92 268//93
f 266//94 265//95 273//95
f 273//96 274//97 266//97
f 269//98 277//98 264//98
f 270//99 276//100 278//101
f 264//95 277//95 271//95
f 263//2 269//2 264//2
f 266//87 274//102 267//88
f 263//90 272//90 270//89
f 270//89 278//89 275//89
f 275//89 269//89 270//89
f 271//48 270//48 272//48
f 274//90 272//90 263//90
f 275//91 278//103 276//91
f 267//92 263//104 265//92
f 266//94 268//94 265//95
f 273//96 272//96 274//97
f 269//98 275//98 277//98
f 270//99 271//100 276//100
f 277//95 276//95 271//95
f 271//95 273//95 265//95
f 265//95 264//95 271//95
